<?xml version="1.0" encoding="utf-8"?>
<!-- Generator: Adobe Illustrator 19.1.0, SVG Export Plug-In . SVG Version: 6.00 Build 0)  -->
<svg version="1.1" xmlns="http://www.w3.org/2000/svg" xmlns:xlink="http://www.w3.org/1999/xlink" x="0px" y="0px"
	 viewBox="0 0 800 600" style="enable-background:new 0 0 800 600;" xml:space="preserve">
<style type="text/css">
	.st0{fill:#BACE6B;stroke:#808080;stroke-width:0.5;stroke-linecap:round;stroke-linejoin:round;}
	.st1{fill:#89B8E4;stroke:#808080;stroke-width:0.5;stroke-linecap:round;stroke-linejoin:round;}
	.st2{fill:#FFEB64;stroke:#808080;stroke-width:0.5;stroke-linecap:round;stroke-linejoin:round;}
	.st3{fill:#F8A758;stroke:#808080;stroke-width:0.5;stroke-linecap:round;stroke-linejoin:round;}
	.st4{fill:#8EC79A;stroke:#808080;stroke-width:0.5;stroke-linecap:round;stroke-linejoin:round;}
	.st5{fill:#FBD165;stroke:#808080;stroke-width:0.5;stroke-linecap:round;stroke-linejoin:round;}
	.st6{fill:#E89BBD;stroke:#808080;stroke-width:0.5;stroke-linecap:round;stroke-linejoin:round;}
	.st7{fill:#AC8FC7;stroke:#808080;stroke-width:0.5;stroke-linecap:round;stroke-linejoin:round;}
	.st8{font-family:'Roboto-Regular';}
	.st9{font-size:14px;}
</style>
<g id="South_Korea">
	<path class="st0" d="M448.353,30l2.416,4.769l3.772,7.443l0.75,3.262l1.922,4.939l7.142,14.086l5.569,14.764l0.908,1.604
		l2.903,3.582l1.112,3.006l13.481,19.225l5.233,7.595l6.267,6.924l0.889,0.725l4.2,4.925l0.217,2.079l0.02,2.5l0.5,2.119
		l2.863,1.589l0.829,1.704l2.363,7.672l1.053,1.776l1.264,0.756l1.06,1.094l3.68,7.215l2.212,2.772l0.764,1.526l0.296,1.616
		l0.56,1.566l3.903,4.281l1.244,3.509l1.106,7.658l1.52,4.21l4.147,5.761l0.316,1.208l-0.474,1.166l-0.75,1.113l-0.474,1.088
		l-0.033,0.977l0.586,3.156l0.711,9.005l0.75,4.154l2.686,8.478l0.217,4.147l-0.843,3.835l-1.823,3.481l-1.481,4.129l-0.81-0.035
		l-2.7-0.617l-2.592,1.143l-5.601-2.061l0.895-2.389l-0.251-2.242l-0.711-2.484l-0.217-2.814l1.078-2.67l0.869-2.53l-0.635-0.748
		l-0.694-0.657l0.326-2.285l-5.927-0.442l-1.739-0.985l-1.856-0.793l-0.761-1.852l-0.594-2.144l-2.667-1.259l-1.664-2.509
		l-0.359-3.265l0.585-2.5l1.379-1.042l1.513-0.565l2.357,0.93l1.914-1.428l-0.786-2.325l-2.525-1.517l-2.767-0.644l-2.199,1.158
		l-2.115,0.534l-2.984-1.366l-3.168-0.532l-1.07,0.435l-0.886-0.109l-0.686-0.915l-0.986-0.409l-2.299,1.786l-2.424,0.949
		l-0.184-1.768l0.201-1.755l-1.405-0.696l-1.563-0.357l-1.137-1.99l-2.207-0.172l-2.199,1.028l-1.471,1.789l0.535,2.482
		l-0.259,2.317l-0.477,2.155l-2.065-0.193l-2.416-0.519l-1.998-0.837l-2.073-1.097l-1.622-1.045l-1.638-0.709l-2.057-0.237
		l-2.107-0.415l-2.132-1.377l-1.923-1.453l-1.931,0.013l-1.948,0.621l-1.739,0.308l-1.471,0.109l-0.585-1.328l-1.605-1.662
		l0.142-1.44l-0.803-0.882l-3.854,0.438l-2.458,0.819l-0.736,0.344l-0.719-0.016l-1.145-0.631l-0.886-0.997l1.388-2.146l2.332-1.655
		l0.936-2.128l-1.455-0.436l-4.615-0.726l-4.514-1.604l-1.873,1.442l-1.597,0.836l-1.931-0.405l-1.622,1.249l-2.675,1.486
		l-2.684,0.648l-1.003-1.402v-2.171l-3.076-3.248l-4.121,1.39l-1.53,1.871l0.443,4.912l-1.638,1.12l-0.543,0.66l-0.627,0.546
		l-0.694-0.324l-0.686-0.425l-2.475-0.172l-2.458,0.579l0.694-4.877l-8.602,1.173l-8.544,2.334l4.389-8.099l3.595-8.806l4.983-10.6
		l0.619-2.277l-0.468-2.28l1.062-1.846l1.496-1.817l1.605-0.664l0.844-1.807l-0.92-1.561l-1.204-1.026l-1.923-0.212l-1.973-0.748
		l-2.725-0.365l-4.548-2.51l-2.048-0.835l-2.031-1.331l-2.232-0.344l-2.165,0.683l-1.797-1.513l0.142-1.647l0.853-1.729l0.334-2.003
		l0.025-2.064l-2.14,0.689l-0.961-1.241l2.358-2.762l-0.393-1.842l-0.652-1.829l0.468-1.387l-0.025-1.659l-0.159-1.569l4.105-3.021
		l1.664-0.54l0.928-1.423l0.418-4.139l-1.914-2.928l-1.572-0.319l-1.496-0.689l-1.129-3.019l-1.789-0.09l-1.914,0.127l-2.09-1.523
		l-0.995-2.704l-0.41-4.81l-0.777-2.424l-0.543-0.468l-0.635,0.106l-0.426,0.412l-0.535,0.077l-1.379-0.973l-3.377,1.192
		l-3.102-0.751l-1.254-0.761l-1.279-1.153l-0.042-1.931l0.627-1.82l0.46-0.693l0.326-0.664l-0.535-0.447l-0.686-0.164l-0.652,0.138
		l-0.568,0.439l-1.07,1.386l-1.195,1.209l-1.839,0.315l-1.622-1.1l-0.301-1l-0.125-1.013l-0.585-0.357l-0.619,0.651l-0.209,1.043
		l-0.017,3.37l-1.053,1.645l-2.968-1.401l-2.717-2.449l-0.953-1l-1.003,0.127l-0.895-1.297l-0.56-1.688l-0.736-0.887l-0.878-0.701
		l-0.677-1.61l-1.205-0.764l-2.85-1.808l-1.602-0.784l0.474-0.602l4.435-3.646l5.154-3.221l5.422-2.193l5.217-0.562l2.575,0.273
		l9.973-0.87l7.67,2.321l2.437-0.223l4.753-1.438l15.604-1.363l0.665,0.451l1.033,1.491l0.995,1.002l1.112,0.284l5.346-1.122
		l8.485,0.493l5.509-0.435l5.551-1.974l5.167-3.333l4.305-4.503l1.873-2.672l1.563-2.854l1.053-3.174l0.351-3.652l-0.685-3.523
		l-0.176-1.797l0.51-1.331l2.207-1.744L448.353,30z"/>
	<path class="st1" d="M311.049,111.677l-0.562-8.775l0.426-2.433l0.974-0.71l1.496-0.164l2.086-0.792l3.219-2.561l6.91-10.535
		l1.413-1.433l3.118-2.412l1.333-1.537l1.642-4.054l1.1-2.715l0.998-1.268l1.602,0.784l2.85,1.808l1.205,0.764l0.677,1.61
		l0.878,0.701l0.736,0.887l0.56,1.688l0.895,1.297l1.003-0.127l0.953,1l2.717,2.449l2.968,1.401l1.053-1.645l0.017-3.37l0.209-1.043
		l0.619-0.651l0.585,0.357l0.125,1.013l0.301,1l1.622,1.1l1.839-0.315l1.195-1.209l1.07-1.386l0.568-0.439l0.652-0.138l0.686,0.164
		l0.535,0.447l-0.326,0.664l-0.46,0.693l-0.627,1.82l0.042,1.931l1.279,1.153l1.254,0.761l3.102,0.751l3.377-1.192l1.379,0.973
		l0.535-0.077l0.426-0.412l0.635-0.106l0.543,0.468l0.777,2.424l0.41,4.81l0.995,2.704l2.09,1.523l1.914-0.127l1.789,0.09
		l1.129,3.019l1.496,0.689l1.572,0.319l1.914,2.928l-0.418,4.139l-0.928,1.423l-1.664,0.54l-4.105,3.021l0.159,1.569l0.025,1.659
		l-0.468,1.387l0.652,1.829l0.393,1.842l-2.358,2.762l0.961,1.241l2.14-0.689l-0.025,2.064l-0.334,2.003l-0.853,1.729l-0.142,1.647
		l1.797,1.513l2.165-0.683l2.232,0.344l2.031,1.331l2.048,0.835l4.548,2.51l2.725,0.365l1.973,0.748l1.923,0.212l1.204,1.026
		l0.92,1.561l-0.844,1.807l-1.605,0.664l-1.496,1.817l-1.062,1.846l0.468,2.28l-0.619,2.277l-4.983,10.6l-3.595,8.806l-4.389,8.099
		l-0.568,1.075l-0.652,0.976l-0.652,0.454l-0.627,0.504l-0.468,0.788l-0.393,0.858l-3.862,7.163l-2.031,1.412l-0.46-0.607
		l-1.58-0.331l-1.254,1.329l-0.669,1.675l-0.978,1.263l-2.073,0.893l-1.321,1.427l-0.727,2.965l-2.692,0.9l-3.436,1.65l-3.628,1.061
		l-3.82-0.515l-3.127-2.618l-3.495-1.588l-6.721,2.866l-3.168-0.003l-3.77-0.773l-0.025-0.005l1.033-0.785l1.218-0.574l0.875-0.984
		l0.553-2.444l-0.158-0.435l-0.75-0.792l-0.145-0.209l0.435-0.406l0.434-0.053l0.415,0.016l1.126-0.624l0.717-0.107l0.533-0.353
		l0.211-1.169l-4.838,1.354l-0.731,1.03l0.257,3.117l-0.586,0.705l-1.883,0.615l-2.679-0.373l-3.179-1.849l-2.87-2.814l-1.091-2.694
		l4.843-0.531v-0.628l-0.336-0.16l-0.764-0.583l0.909-0.119l0.862,0.049l0.79,0.271l0.698,0.542l-0.342-1.921l-1.106-1.712
		l-0.803-1.963l0.592-2.662l-0.915-0.411l-0.704,0.933l-0.435,1.606l-0.145,1.622l-0.375,1.762l-0.77,0.406l-0.764-0.764
		l-1.547,0.32l-1.56,0.398l-3.726-1.117l0.025-1.143l-0.351-1.004l0.293-1.359l-0.158-1.73l0.938-1.714l1.118-1.53l1.287-0.618
		l1.377-0.525l2.047-0.032l2.185-0.592l0.454-0.674l0.125-1.871l-0.5-0.366l-1.126,0.613l-1.678,1.452l-1.047-0.214l-0.77-0.452
		l-0.415-0.798l0.007-1.234l-1.922,0.979l-1.56,1.111l-2.883,3.117l-0.744,0.592l-0.935,0.333l-0.869-0.029l-0.527-0.518
		l0.033-0.929l0.494-0.904l1.191-1.678l-2.357,0.543l-0.75-0.234l-0.257-1.382l0.434-1.024l0.987-0.58l1.126-0.383l0.816-0.457
		l0.981-1.337l-0.257-0.346l-2.166,0.3l-0.717-0.44l-0.566-1.087l-0.54-1.358l-0.652-1.26l0.362-0.103l0.23-0.161l0.513-0.486
		l0.592,0.453l0.895-0.049l1.573-0.404l1.284,0.354l1.073,0.663l1.06,0.342l1.244-0.609l-0.099,1.128l0.099,1.095l0.395,0.848
		l0.77,0.383l0.849-0.333l0.395-0.951l0.401-2.17l1.363-2.034l1.119,0.156l1.264,0.762l1.784-0.259l-0.382-0.828l-0.494-0.614
		l-0.625-0.412l-0.757-0.222l-1.124,0.042l-0.513-0.772l-1.209-0.219l-0.974,0.308l-0.969-0.055l-1.531-0.304l-2.534-0.8
		l-3.52-2.665l-0.186-1.169l1.567-2.274l1.066-1.073l2.55-0.743l0.602-0.443l1.062-0.783l1.154-2.222l0.761-2.5l-0.769-1.258
		l-1.304-0.852l-0.869-1.99l0.008-2.397l-4.765-4.566l-4.149,0.147l-3.683,0.13l-0.395-0.893l-0.631-1.502l-0.716-1.18l-0.834-1.424
		l-0.924-0.901l-0.018-1.372l-0.333-2.052l-0.869-3.204l-1.165-8.369l0.316-1.376l1.073-0.199l4.456,1.592l1.422-0.307l1.185-0.555
		l1.053-0.207l1.08,0.721l0.401,1.202l0.158,1.877l-0.118,1.927l-0.441,1.317l-0.033,2.385l2.482,2.074l3.147,1.32l1.955,0.12
		l-1.521-1.569l-4.66-3.354l1.356-3.612l0.402-2.163l-0.342-1.525l-0.764-1.596l-0.066-0.872l-0.092-1.164l0.369-2.045l0.849-1.631
		l-0.606-0.759l-0.797,0.112L311.049,111.677z M347.322,139.895l0.744-2.878l-0.05-2.482l-0.844-2.262l-0.535-3.238l-1.388-2.382
		l-2.909-0.237l-2.525,0.602l-1.613,1.722l-1.137,2.402l-1.864,2.365l-3.628,0.347l-0.468,1.613l-0.134,1.749l-1.714,1.04
		l-1.923,0.651l-2.592-1.575l-2.266-0.145l-1.212,2.597l1.914,2.336l1.605,2.28l0.426,2.914l1.613,1.059l2.341,0.703l2.374,3.111
		l3.469,0.118l1.48-0.241l1.421-0.813l2.006-0.624l2.023-0.467l0.928,2.123l2.374-1.19l2.307-0.535l2.098-1.243l0.769-1.327
		l1.388-1.888l-0.652-0.729l-0.025-1.836l1.229-0.813l1.129-0.569l0.217-1.514l-0.619-1.478l-1.647,0.024l-1.898,0.683
		L347.322,139.895z M280.943,114.26l1.593-0.025l1.481,0.232l0.75,0.846l-0.533,1.808l-1.435,1.236l-1.777,0.116l-3.37-0.721
		l-0.744,0.29L276,118.523l-0.783,0.021l-0.322-1.107l0.178-0.348l0.928-2.812l0.994-0.962l1.139-0.307l1.297,0.332L280.943,114.26z
		 M285.913,125.194l1.007,0.795l0.777,0.878l0.158,0.969l-0.856,1.101l-1.639,0.099l-5.49-4.265l0.711-0.646l0.336-0.808
		l0.461-1.914l0.25-0.493l0.395-0.522l0.454-0.381l0.467-0.116l0.303,0.17l0.197,0.311l0.118,0.431l0.25,1.865l0.092,0.352
		l0.388,0.671l0.513,0.572L285.913,125.194z M298.137,135.191l-0.619,0.07l-0.487-0.223l-0.849-0.918l-0.612-0.372l-0.434,0.153
		l-0.336,0.343l-0.309,0.19l-4.252,0.232l-1.58-0.736l-1.659-2.214l2.488-0.65l0.592-0.393l0.685-1.072l-0.092-0.493l-0.454-0.311
		l-0.415-0.555l-2.883-5.484l-0.178-0.833l0.296-1.094l-0.079-4.826l0.336-1.099l0.783-0.295l1.909-2.211l1.474-0.382l1.29,0.929
		l1.218,1.439l1.224,1.12l2.6,1.306l1.033,1.037l0.415,1.638l-0.092,0.821l-0.421,1.38l-0.092,0.613l0.184,0.688l0.75,1.375
		l0.171,0.754l0.263,3.661l-0.263,0.853l0.448,0.546l0.454,1.089l0.257,0.447l-1.047,0.625l-0.908,2.143L298.137,135.191z
		 M154.55,96.094l0.889,1.102l-0.132,1.497l-1.119,0.819l-1.573-0.948l-2.06,0.179l-0.428,0.204l0.033,1.072l0.79,0.395l0.948,0.17
		l0.441,0.391l-1.652,1.296l-3.305-0.461l-2.462-2.099l0.843-3.617l2.054,0.732l4.489-1.572L154.55,96.094z M265.138,172.595
		l-0.573,0.321l-0.336-0.115l0.007-0.362l0.25-1.655l0.454-1.367l0.592-0.819l0.652,0.449l0.566,0.959l0.579,0.473l1.995,1.046
		l0.612,0.675l-0.336,0.626l-1.027,1.045l-0.731,0.309l-0.948,0.144l-0.803-0.366l-0.527-0.914l-0.211-0.514L265.138,172.595z
		 M296.215,167.436l0.836,0.556l0.316,1.223l-0.355,0.42l-0.869,0.296l-0.336,0.667l-0.066,0.622l-0.704,0.823l-0.915,0.222
		l-0.625-0.461l-0.665,0.066l-0.527-0.329l-0.184-1.276l0.151-1.309l0.665-0.923l1.428-0.758L296.215,167.436z M306.721,169.845
		l0.198,0.469l0.197,0.865l-0.428,0.93l-4.127,3.28l-1.876,0.234l0.02-0.51l0.882-1.193l0.118-0.683l-0.369-0.589l1.053-1.198
		l0.033-1.21l-0.435-1.495l-0.599-1.038l-0.586-0.671l0.178-0.206l1.33,0.643l1.139-0.997l0.257,0.082l-0.237,0.877l0.336,0.795
		l0.948,0.544l1.54,0.642L306.721,169.845z M231.843,126.81l0.889,0.116l0.566,0.592l-0.25,1.105l-0.77,0.762l-0.467,0.224
		l-0.263-0.563l-0.434-1.259l0.099-0.878L231.843,126.81z M153.24,109.729l0.645,0.332l0.112,0.639l-0.362,0.913l-0.25,1.046
		l-0.329,0.88l-0.599,0.328l-0.632-0.054l-0.533,0.191l-0.415,0.431l-0.217,0.079v-0.27l0.013-0.133l-0.263-0.498l-0.645-0.838
		l0.244-0.801l1.363-1.083l0.869-0.905l0.408-0.324L153.24,109.729z"/>
	<path class="st2" d="M289.853,250.006l0.608,1.852l1.093,1.678l0.461,1.564l-0.77-0.358l-3.594,0.204l-1.165-0.187l-0.221-1.497
		l0.39-0.533l0.621-0.57l0.328-0.887l-1.929,1.214l-0.902-0.432l0.25-1.495l1.461-2.017l-0.553-0.619l-1.106,1.304l-0.375-0.9
		l-0.849,0.453l0.442-2.404l-0.311-3.671l-0.373-2.219l-0.836-2.8l0.699-0.913l1.433-1.328l1.542-0.524l1.076,1.719l0.145,0.616
		l-0.351,0.735l-0.617,0.493l0.073,0.689l1.363,3.077l0.217,0.979l-0.355,0.816l0.417,0.719l0.918,0.542l0.719,1.25h-1.698v0.619
		l0.553,0.11l1.145,0.64l-0.089,0.631l-0.081,0.496L289.853,250.006z M322.748,291.105l-1.664,0.51l-1.633,1.122l-1.369,1.313
		l-1.514,0.725l-1.804,0.304l-1.692,0.745l-1.231-0.599l-0.415-0.693l-0.132-0.912l-0.421-1.252l-0.671-1.082l-1.363-1.788
		l-0.731-1.212l1.126-0.908l-0.527-0.625l-1.106-0.462l-1.013-0.337l-1.851-3.171l-1.422-0.616l-1.075,0.62l-0.509-0.005
		l-0.042-1.098l-1.828-1.166l-1.579,0.248l-0.491,1.878l-0.269,0.645l-0.553-0.507l0.322-2.913l2.746-1.389l2.425-0.763l3.392,0.974
		l-1.198-1.973l-0.678-0.775l-0.902-0.658l-0.54-0.126l-0.645,0.378l-0.461-0.252l-0.606-0.658l-0.5-0.707l1.698-4.656l0.974-2.053
		l1.185-0.785l-0.895-1.094l-3.436-1.049l-1.238-0.655l1.218-1.123l3.601-0.871l0.75-1.042l-0.52-1.327l-1.277-0.334l-2.666-0.016
		l-0.553-0.383l-0.954-1.16l-0.652-0.574v-0.676h1.053l-1.212-2.243l1.465-0.809l1.67-0.504l1.556-2.264l3.331-0.926l1.576-0.84
		h-4.72l-1.139,0.648l-1.744,2.591l-1.284,0.244l-0.803-0.974l-0.737-1.85l-0.467-1.899l0.053-1.121l1.685-1.969l0.783-1.215
		l-0.257-0.547l-1.551,0.559l-0.7-0.657l-0.635-0.42l-0.384-0.079l-0.376-0.921l0.354-0.84l-0.068-0.919l-0.407-1.724l-0.492-0.731
		l-0.035-0.42l1.116-0.07l1.617-0.749l1.687,0.055l0.126-1.222l0.485-1.081l-0.66-0.871l-0.959-0.2l-1.299-1.282l0.822-1.176
		l1.138-0.913l-0.77-1.392l-1.939-0.363l-0.392-1.678l0.62-1.236l1.892-0.3l-1.086-1.235l-0.375-0.622l-0.25-0.883l-0.678,0.577
		l-1.145,1.247l-1.284,0.548l-0.257,0.711l0.046,0.707l0.572,0.874l0.101,1.703l-0.596,1.958l0.355,2.628l-0.859,2.243l-0.732,0.917
		l-1.497-1.165l-1.564-0.069l-1.556-1.021l0.39-5.422l0.48-1.959l-0.929-0.441l0.28-2.548l-0.869-1.039l-1.303,0.229l-0.731,1.309
		l-0.198,1.607l-0.586,1.177l-1.843,0.029l0.757,1.545l1.474,2.349l0.533,1.654l-0.889,0.751l0.118,0.829l1.363,1.841l-1.237,0.245
		l-1.047,0.596l-0.875,0.857l-0.704,1.041l0.013-0.735l-0.092-0.747l-0.184-0.678l-0.277-0.58l1.113-2.45l-2.376-3.889l0.711-1.949
		l-0.612-2.743l-1.494,0.834l-2.139,2.698l-1.58,0.584l-0.928,0.184l-0.829,0.327l-0.829,0.057l-0.981-0.568l-0.237-0.466
		l-0.336-0.936l-0.125-0.924l0.395-0.417l3.337,0.033l0.849-0.576l-0.02-1.517l-0.869-1.578l-1.244-0.609l-1.303-0.38l-1.047-0.859
		l-0.415,1.202l-0.237,2.503l-0.454,1.161l-0.948,0.858l-0.316-0.809l0.099-2.519l-0.158-2.446l0.224-0.679l2.073-2.627l0.408-0.917
		l0.323-1.285l0.257,0.974l0.349,0.876l0.434,0.827l0.56,0.818l0.428-0.401l0.533,0.041l0.612,0.213l0.691,0.147l-0.849-1.195
		l-0.862-1.547l2.304,0.688l0.948-0.246l0.612-1.195l-2.067-0.147l-1.27-0.573l-0.151-1.253l1.336-2.146l-1.83-1.511l0.118-1.401
		l1.396-1.131l1.975-0.709l-0.513,2.459l0.197,0.68l1.113,0.238l2.008-0.037l0.54-0.373l0.527-0.905l0.145-2.266l-0.204-3.046
		l0.375-2.485l1.883-0.578l-0.244,1.39l0.059,2.177l0.355,2.205l1.007,2.651l-0.494,0.934l-0.79,0.836l-0.494,0.872l0.026,0.926
		l0.507,1.482l0.066,0.401l-0.441,0.475l-1.455,0.95l-0.303,0.262l0.079,0.868l0.263,0.917l0.428,0.536l0.579-0.266l1.363-1.252
		l1.02-0.029l2.33,1.596l-1.672-3.61l-0.592-2.248l0.862-1.008l1.303,1.663l0.797,0.516l0.369-1.089l0.342-0.34l0.843-0.34
		l1.619-0.41v-0.627l-0.645-0.098l-1.56-0.651v-0.627l1.948-0.455l1.145-1.856l0.296-2.263l-0.632-1.673l-0.704-0.234l-2.12-0.037
		l-1.047-0.422l-0.783-0.951l-0.257-0.935l0.388-0.328l1.165,0.841l0.533-1.563l-0.573-0.927l-1.244-0.377l-1.481,0.111l0.599-0.775
		l0.803-0.558l0.869-0.148l0.79,0.447l0.77,0.591l0.678,0.135l0.309-0.312l-0.355-0.759v-0.751l2.982-0.049l1.428,0.501l0.606,1.334
		l-0.408,0.825l-0.777,0.874l-0.474,1.144l0.513,1.632l0.711-0.709l0.915-0.496l0.79,0.016l0.336,0.845l0.092,0.705l0.375,0.64
		l0.086,0.689l-0.145,0.262l-0.731,0.869l-0.23,0.623v4.499l0.27,1.303l0.592,0.913l0.592,0.344l0.263-0.471l0.329-2.507
		l1.481-4.811l0.342-2.37l0.435-0.558l0.981,0.664l1.402,1.55l0.573,1.09l0.415,1.008l0.612,0.664l1.152,0.049v-0.623l-0.579-0.766
		l-0.704-2.054l-0.619-1.025l-4.957-5.226l-0.355-0.283l0.276-1.087l0.691,0.123l0.829,0.78l1.29,1.608l0.685,0.607l0.829,0.377
		l1.007,0.004l0.757-0.443l0.073-0.693l-0.553-0.648l-1.145-0.283l-1.54-0.739l-1.676-1.564l-0.755-2.329l-0.176-1.562l1.481-0.041
		l1.29,0.62l1.159,1.014l1.619,1.154l1.546,1.065l0.634,0.645l1.227,0.834l1.183,0.651l0.809,1.377l-0.381,1.363l-0.785,0.922
		l0.158,0.722l0.803,1.534l0.099,0.943l-0.296,1.656l0.889-0.615l0.355-0.746l0.217-0.836l-0.308-2.473l0.329-0.817l0.513-0.861
		l0.748-1.405l1.335-0.623l1.253-0.012l1.401,0.179l1.55,0.566l1.962,0.525l1.407,0.92l1.705,1.747l0.118,2.153l-1.27,4.353
		l0.968-0.639l1.521-1.955l0.829-0.152l0.579,0.828l0.336,1.484l0.178,2.876l-0.086,0.615l-0.375,1.368l-0.079,0.794l0.158,0.827
		l0.718,1.204l0.685,3.131l-0.23,0.896l-1.33,0.405l0.243,0.847l0.316,0.577l0.467,0.393l0.671,0.307l0.474-2.258l0.797-1.342
		l0.408-1.432l-0.672-2.522l1.639,0.475l1.718,0.213l-2.778-3.071l-0.829-1.692l1.652-0.737l1.488-0.246l3.515-1.414l1.554-1.182
		l0.025,0.005l3.77,0.773l3.168,0.003l6.721-2.866l3.495,1.588l3.127,2.618l3.82,0.515l0.635,1.493l0.953,0.999l1.087,0.629
		l1.388,2.787l1.062,0.743l-0.084,2.069l0.669,0.611l0.535,1.011l0.176,1.141l-0.201,1.135l-0.393,1.06l-0.251,1.098l-0.109,0.865
		l-0.41,0.768l-0.752,0.21l-0.769-0.119l-0.677,0.724l-1.705,2.953l-2.241,3.238l-11.509-4.573l-1.885,5.2l0.253,15.19l-1.229,1.172
		l-0.736,2.098l7.365,1.441l5.514-1.502l4.333,6.771l1.466,2.849l0.419,7.248l1.676,5.431l3.98-1.034l3.52-2.623l1.162-0.392
		l2.115-1.701l1.17-4.32l1.062-1.7l0.393-2.349l1.062-1.427l1.363-0.99l1.12,0.504l1.037,0.344l-0.309,1.734l-1.329,1l-0.819,1.488
		l-0.736,1.674l-1.831,3.285l-0.97,3.862l-0.142,2.761l0.217,2.84l2.608-0.539l2.399,0.776l2.483,1.516l0.836,2.967l-0.109,3.448
		l0.694,3.418l1.647,2.922l1.839,2.849l-1.914,1.914l-1.965,1.721l-2.399,0.664l-2.383,0.111l-1.747,0.427l-4.681-0.612l-0.334-0.8
		l0.569-1.137l-0.485-0.993l-1.037-0.262l-2.684-1.346l-3.637-6.531l-2.583-2.287l-1.354,1.383l-1.087,1.687l-1.697,0.35
		l-1.145,0.51l-1.17,0.407l-4.456,0.865l-2.266,0.875l-2.391,0.445l-1.722-2.672l0.719-4.399l-2.984-0.595l-8.377,2.633
		l-4.548,0.973l-3.871,0.422L322.748,291.105z"/>
	<path class="st3" d="M315.303,157.504l-0.233-0.688l-4.239-0.54l-1.975,2.511l-2.043-1.556l0.833-1.842l1.072-1.609l-0.673-1.138
		l-1.448-0.784l-1.328-0.702l0.187-1.854l-0.265-1.456l0.788-1.362l2.32-0.698l0.694-0.354l0.173-0.845l-1.091-0.296l-0.295,0.884
		l-1.664,0.181l-0.432-1.014l-0.178-1.859l0.395-2.457l3.683-0.13l4.149-0.147l4.765,4.566l-0.008,2.397l0.869,1.99l1.304,0.852
		l0.769,1.258l-0.761,2.5l-1.154,2.222l-1.062,0.783l-0.602,0.443L315.303,157.504z M302.625,143.565l0.318,0.326l0.316,0.496
		l0.429,0.404l0.335,0.685l0.201,0.532l-0.44,0.183l-0.683,0.507l-0.277,0.368l-1.413,0.338l-0.625-0.104l-0.86,0.403l-1.889,0.824
		l-1.018,0.911l-0.564,0.993l-3.527,2.655l-0.794-0.181l-0.741,0.085l-0.322-0.08l-0.338-1.237l-0.64-0.404l-0.294,0.322
		l-0.267,0.091l-0.092-0.209l0.138-0.357l-0.202-0.494l-0.492-0.063l-0.326,0.429l-0.5,0.392l-0.604-0.272l-0.87-0.219l0.514-0.509
		l-0.179-0.551l-0.885-0.84l-0.216-0.529l0.31-0.752l0.481-0.146l0.669,0.347l3.666-2.56l2.624-0.286l1.784,0.043l1.644-0.866
		l0.562-2.275l1.146-0.423l0.934,0.94l0.454,0.178l0.467,0.264l0.461,0.19l0.454,0.025l0.488,0.095L302.625,143.565z"/>
	<path class="st4" d="M292.4,358.222l-1.116-1.265l-0.395-1.053l0.592-2.336l1.389-2.891l2.192-5.102l1.848-2.652l2.639-0.942
		l3.006-0.616l2.571-0.139l1.186-0.947l1.139-1.639l1.611-0.412l1.444,1.615l1.481,1.824l1.086,0.362l-1.053-3.697l-0.75-1.68
		l-1.224-0.701l-11.477,1.869l-3.998-2.483l0.243-2.665l0.066-1.066l1.894-0.939l1.653-1.627l1.53-1.748l2.428-1.411l2.978-1.636
		l2.262-3.148l0.344-2.963l1.243-0.737l0.919-0.579l0.488-0.423l2.901-0.292l2.84,0.35l1.8,1.384l1.29,0.323l0.862,1.486
		l0.336-0.808l0.276-1.123l0.118-1.167l-1.08-0.858l-0.745-0.543l-1.547-0.765l-1.757-1.194l-1.428-1.065l-0.75-0.38l0.217-0.857
		l0.672-0.922l0.671-0.55l0.737-0.17l4.516,0.291l0.987-0.081l0.731-0.38l0.494-0.894l0.184-0.732l0.388-0.506l1.113-0.19
		l0.355-0.324l-0.421-0.728l-0.862-0.748l-0.954-0.352l-0.257,0.202l-5.944,2.395l-1.994,0.097l-3.916-0.255l-3.867-0.305
		l-0.036-1.711l-0.245-2.355l-0.747-0.649l-2.413-0.826l-3.559,0.556l-0.349-3.001l7.331-0.787l3.987-0.494l4.033-0.238l1.303-0.782
		l1.389,0.405l1.698-0.867l2.982-2.256l3.785-1.503l1.599-1.143l0.145-1.439l-4.741,1.46l3.641-4.475l3.871-0.422l4.548-0.973
		l8.377-2.633l2.984,0.595l-0.719,4.399l1.722,2.672l2.391-0.445l2.266-0.875l4.456-0.865l1.17-0.407l1.145-0.51l1.697-0.35
		l1.087-1.687l1.354-1.383l2.583,2.287l3.637,6.531l2.684,1.346l1.037,0.262l0.485,0.993l-0.569,1.137l0.334,0.8l4.681,0.612
		l1.747-0.427l2.383-0.111l2.399-0.664l1.965-1.721l1.914-1.914l0.694,0.831l0.769,0.702l0.652-0.16l0.527-0.702l1.371,0.805
		l1.212,1.433l3.62,1.186l0.752,0.938l1.296,0.37l2.6-1.587l2.984-1.342l1.179,1.121l1.187,0.64l1.037-0.946l1.037-1.085l3.31,5.634
		l-0.376,6.333l-2.959,3.166l-0.786,2.087l-4.021,2.13l-1.99,0.608l-1.104-0.118l-0.794,0.51l-1.522,3.281l-1.747,1.821
		l-1.848,1.633l-0.903,2.599l-0.234,3.049l-1.02,2.223l-1.254,2.338l-0.945,2.987l-0.694,3.086l-1.129,2.297l-0.084,2.49
		l2.073,0.874l0.301,1.091l0.151,1.25l0.895,2.33l-0.142,2.529l0.828,1.867l1.162,0.774l-0.485,2.711l-3.377,4.026l-0.535,2.642
		l-0.117,2.435l-1.697,1.728l-4.615-3.709l-5.175-1.864l-2.934,1.63l-2.358,2.529l-2.533,0.352l-2.684,0.02l-2.934,0.392
		l-2.976-0.053l-1.379-0.803l-1.229-0.946l-1.421,0.362l-1.68-0.023l-2.441,0.403l-2.324,1.387l-3.01-0.446l-1.948-2.067
		l0.109-3.264l-1.647-1.854l-0.493-1.832l0.719-2.848l-1.63-2.477l-2.383,0.13l-0.585,1.016l-0.794,0.761l-0.518,1.307l-0.192,1.409
		l-2.5,0.031l-3.795-5.126l-2.475-2.02l-1.413-0.598l-1.471-0.105l-1.346,1.594l-2.742-0.268l-2.031,1.818l-0.008,1.335l0.075,1.338
		l-0.744,1.123l-1.02,0.748l0.059,1.054l0.159,1.01l-0.677,1.398l-1.07,0.926l-1.321,0.635l-1.388,0.403l-1.17,0.709l-1.087,0.801
		l-2.709,0.403l-2.566,0.928l-2.408,0.602l-2.015-0.676l0.117-2.675l0.518-2.658l0.468-3.613l-2.333-0.625l-7.858,2.187
		l-1.672,0.536L292.4,358.222z M277.935,338.44l-0.355-0.371l-0.257-0.653l0.158-0.628l0.849-0.443l-0.118-0.161l-0.401-0.258
		l0.197-0.234l0.448-0.25l0.303-0.427l0.487-0.081l0.29-0.133l-0.138-0.544l0.349,0.016l0.915,0.165l0.612-0.496l0.296-0.327
		l0.349,0.266l0.171,0.592l-0.303,0.738l-1.488,1.281l-1.001,1.112l-0.632,0.487l-0.263,0.242L277.935,338.44z"/>
	<path class="st5" d="M403.061,398.944l-0.53-0.147l-3.278,0.032l-1.093-0.184l-0.434-0.5l-0.198-0.748l-0.474-0.952l-0.928-0.736
		l-0.217,0.756l0.138,1.176l0.178,0.516l-0.586,1.811l-0.323,0.62l-0.75,0.863l-3.061,2.438l-1.698,0.755l-1.218-1.043l-1.527-3.101
		l-1.264-0.504l-0.882,1.255l-0.434,1.966l0.092,1.642l0.75,1.738l1.251,2.244l1.435,1.956l1.284,0.822l0.908,1.173l0.849,0.407
		l1.007-0.63l2.508-2.347l1.738-0.232l1.481,0.287l1.382,0.088l1.521-0.811l-0.092,1.936l-0.263,1.373l-0.803,2.773l-0.928,4.893
		l-0.671,1.132l-2.844,0.949l-2.251-1.124l-1.804-0.383l-1.481,3.237l-0.474-0.311l-0.118,0.028l-0.112,0.179l-0.401,0.104
		l0.632,1.291l0.474,1.379l0.592,4.373l-0.369,0.812l-0.836-0.462l-1.323-1.386l-1.935-0.239l-1.442-0.793l-0.928-1.446
		l-0.395-2.191l0.494-2.072l1.053-2.041l0.764-1.93l-0.375-1.655l-0.652-0.921l-1.284-2.765l-0.336-0.215l-0.454-0.012l-0.474-0.072
		l-0.395-0.423l-0.039-0.503l0.138-0.591l0.237-0.375l-1.224-2.571l-0.211-0.958l0.072-0.579l0.355-0.958l0.079-0.503l-0.178-0.551
		l-0.375-0.431l-0.375-0.124l-0.178,0.407l-0.276,0.22l-1.382,3.498l-0.533,0.743l-0.276,0.192l-0.415,0.048l-2.758,0.97l-1.606,0.2
		l-3.495-0.088l-1.317,0.391l1.066,0.874l2.087,0.91l1.718,0.503v0.618l-3.436,1.093l-1.738,0.973l-0.296,1.336l0.691,0.562
		l1.521-0.61l0.81,0.347l0.573,0.933l-0.171,0.343l-0.435,0.112l-0.224,0.263l1.126,3.898l2.337,2.088l2.528,1.617l1.731,2.477
		l-0.829-0.127l-1.422-0.008l-0.606,0.135l3.476,1.334l0.449,1.083l0.229,2.039l-0.74,0.738l-0.833,0.705l-1.58-0.076l-1,0.251
		l-3.68-2.284l-1.185-0.382l-1.047,0.199l-1.303,0.597l-1.106,0.788l-0.467,0.748l0.191,0.31l0.968,2.029l1.134,0.248l0.685,0.453
		l3.074-0.799l1.683,1.428l-3.837,3.508l-1.363,1.929l-1.482-0.677l-2.331,1.762l0.244,1.703l1.033,1.12l-2.238,0.011l-3.304-4.351
		l-1.139-2.333l-3.035-3.273l-0.928,0.211l-3.206,1.671l0.322,1.002l0.23,0.39l-1.316-0.453l-1.27-0.247l-1.086-0.569l-0.75-1.404
		l-0.099-1.436l0.513-0.835l1.797-1.062l0.579-0.513l1.633-2.153l1.007-2.11l0.579-0.725l1.178-0.573l-0.079,1.633l-0.395,1.584
		l-1.185,2.857l2.37-0.155l1.981-0.72l1.185-1.632l-0.026-2.89l-0.474-1.131l-0.625-0.645l-0.481-0.757l-0.072-1.482l0.434-0.777
		l2.33-2.57l0.843,0.442l0.553,0.598l0.138,0.765l-0.428,0.932l0.487,1.279l0.691,0.892l0.928,0.303l1.251-0.466l0.527-0.681
		l1.106-2.366l0.632-1.02l-1.126-1.67l-0.434-1.746l-0.573-0.789l-1.534,1.192l-1.764,0.746l-1.461-1.216l-1.995-3.21l-1.145,1.795
		l-1.633,4.182l-1.132,1.379l-1.165,0.47l-0.987-0.052l-2.027-0.418l-0.954,0.335l-0.889,0.813l-1.461,1.924l-0.652,0.55
		l-2.962,1.724l-1.6,1.214l-1.027,0.597l-0.987,0.259l-0.612,0.315l-0.138,0.808l0.04,1.079l-0.151,1.142l-0.533,0.804l-0.75,0.875
		l-0.375,1.042l0.606,1.273l-4.463,4.374l0.145,4.038l-0.757,0.671l-2.152-1.073l-0.711,0.854l-0.336,0.958l0.039,1.049l0.454,1.14
		l-1.047-0.33l-2.264-1.609l-3.107-0.906l-0.711-0.429l-0.632-1.872l0.336-4.949l-0.309-1.917l0.448-1.221l-0.099-1.504
		l-0.533-1.317l-0.922-0.689l-0.875,0.251l-0.882,0.828l-0.678,1.058l-0.27,0.931l0.329,1.353l0.514,1.177l0.026,0.823l-2.495,0.831
		l0.322,1.193l1.81,2.294l-3.1,1.792l-1.165,1.069l1.205,0.477l0.277,0.219l0.079,0.477l-0.092,0.477l-0.263,0.214l-0.494-0.099
		l-0.75-0.453l-0.395-0.107l-1.066,0.159l-0.217,0.449l-0.013,0.727l-0.415,0.965l-0.632,0.425l-2.396,0.604l-0.902,0.758
		l-0.322,0.631l-1.968,6.588l-0.165,0.944v1.126l-1.975-0.42l-3.726,1.221l-0.935-0.19l-0.112-1.15l0.764-2.344l-0.151-1.107
		l-0.737-0.631l-1.02-0.202l-2.113,0.107v-0.607l0.428-0.564l0.138-0.389l0.158-1.536l0.276-0.052l0.362,0.119l0.349-0.238
		l1.145-2.073l0.217-0.997l-0.309-0.997l-0.401-0.318l-0.592-0.207l-1.205-0.143l-0.869-0.238l-0.118-0.528l0.237-0.481l0.184-0.139
		l0.033-1.251l0.303-1.204l-0.145-0.644l-1.297,0.429l0.355-2.357l1.613-1.185l2.153-0.414l2.014-0.048l-0.369-0.755l-0.5-0.581
		l-0.632-0.406l-0.764-0.262l1.277-0.891l0.79-1.042l0.026-0.915l-0.987-0.545l-0.362,0.143l-0.731,0.907l-0.514,0.346l-0.671-0.008
		l-1.047-0.645l-0.546-0.016l-0.494,0.445l-0.336,0.668l-0.277,0.883l-0.717,0.159l-0.691-0.024l-0.79-0.135l-1.731,0.032
		l-0.948,0.167l-1.191,0.469l-0.151-1.551l-0.691-0.899l-1.922-0.943l0.026-0.31l-0.401-0.788l-0.487-0.474l-0.244,0.629
		l-0.237,0.374l-0.573,0.33l-0.652,0.131l-0.513-0.199l-1.678-1.6l-0.211-0.099l-0.277-0.983l0.138-0.283l0.329-0.131l0.316-0.541
		l0.322,0.458l0.81,0.012l0.586-0.47l-0.336-1.003l-2.166-1.059l-1.678-1.227l-0.138-2.82l0.704-3.136l0.849-2.18l0.086-0.741
		l-0.066-0.909l0.118-0.766l0.658-0.319l0.606,0.06l0.632,0.18l0.474,0.323l0.533,1.168l2.469,3.683l-0.77,1.012l-0.237,0.98
		l0.138,1l0.263,1.076l1.672,4.679l1.007,0.601l4.009,0.669l1.718,1.182l0.928-0.084l0.658-1.699l-0.908,0.135l-0.48-0.239
		l-1.665-0.361l-0.785-1.222l-1.03-1.027l0.286-2.248l-1.068,0.195l-0.516,1.384l-0.84,0.075l-0.508-1.827l-0.249-2.444l0.615-1.393
		l-0.466-1.712l2.213-0.218l3.39,0.737l0.441,0.783l-0.214,1.273l0.02,0.395l-0.033,0.379l0.191,0.59l0.842,0.543l0.49,0.66
		l1.055,0.686l1.452,0.573l0.878,0.848l1.127,0.808l0.856,0.56l0.351-0.432l-1.694-2.229l1.007-0.218l1.495,0.858l1.928,1.049
		l2.332,0.742l1.693-0.432l-1.705-0.287l-1.382-0.872l-2.429-2.127l0.592-0.729l-1.751-1.275l-2.646-3.38l-1.468-0.694l-2.014-0.403
		l-2.392,0.154l-1.65-1.068l-2.038,0.549l-1.87-0.614l-0.246-0.93l1.157-1.443l1.133-0.463l2.41,0.375l3.075-1.37l3.698,2.716
		l1.244-0.239l0.316,0.215l0.197,0.199l0.217,0.172l0.375,0.143l-0.355-1.886l0.158-1.723l0.968-1.261l1.981-0.491l3.706,1.105
		l1.896,0.14l-0.573-1.245l1.251-0.626l0.671-0.14l0.843,0.044l-1.205-1.381l-1.837-0.335l-4.2,0.375l0.316-0.95l-0.105-0.647
		l-0.211-0.671v-1.022l0.296-0.647l0.428-0.479l0.355-0.599l0.026-1.018l-0.652-1.45l-1.113-0.336l-1.205,0.563l-0.889,1.222
		l-0.099,0.815l0.533,1.653l0.118,0.886l-0.138,0.132l-0.968,1.932l-0.908,3.344l-0.843,1.141l-1.606,0.144v-0.227l-0.507-0.383
		l0.329-0.523l0.435-1.021l0.336-0.519l-1.099-0.559l-0.737,0.327l-0.711,0.622l-1.066,0.331l-2.152-0.479l-0.685,0.323
		l-0.135,1.013l-1.109-0.019l-1.744,0.575l-0.849-0.431l-0.276-1.041l0.579-0.974l1.652-1.644l0.599-0.902l0.336-0.711l0.138-0.667
		l0.033-0.763l-0.217-1.466l0.277-0.723l1.047-0.919l-1.007-0.791l-0.882-1.642l-0.48-1.922l0.158-1.615l1.126-1.031l1.527-1.044
		l0.474-0.864l-2.021-0.48l-0.921,0.168l-0.54,0.468l-0.435,0.488l-0.612,0.22l-0.79,0.404l0.118,0.96l0.395,1.127l0.026,0.919
		l-1.132,1.027l-1.461,0.1l-1.415-0.46l-1.014-0.667l0.77-0.528l0.336-0.144l-0.711-0.508l-0.606-0.612l-0.5-0.732l-0.395-0.888
		l0.928-0.476l0.908,0.048l2.021,0.428l-0.244-2.112l2.258-2.236l-0.599-2.061l-2.304-3.182l-1.422-1.297l-1.547-0.529l0.638,2.21
		l-0.56,1.265l-1.145,0.04l-1.145-1.497l0.757-1.049l-2.08-2.755l-0.29-1.634l1.165-1.35l1.652-0.22l1.468,0.749l0.645,1.558
		l1.027-0.657l0.573-1.13l0.652-2.252l0.573,1.122l0.105,0.946l-0.217,1.819l-0.362,0.921l-0.099,0.569l0.158,0.585h0.323
		l0.375-0.14l0.25,0.168l0.323,1.297l0.079,0.557l0.296,0.32l0.968,0.577l0.783,0.276l1.363,0.048l0.612,0.348l-0.467,1.121
		l0.132,1.081l0.579,1.004l0.862,0.884l2.041-4.606l0.211-1.561l-0.039-1.754l-0.395-0.629l-1.521-0.38l-0.645-0.361l-0.533-0.541
		l-0.829-2.211l-2.653-3.09l-0.612-1.423l0.178-0.481l0.375-0.405l0.382-0.533l0.178-0.91l-0.856-0.602l-0.415-0.782l0.158-1.364
		l-1.04,0.409l-1.073,0.173l-2.304,0.028l0.902-1.111l1.481-0.341l1.679-0.092l1.468-0.357l-0.48-0.185l-0.257-0.225l-0.296-0.197
		l-0.632-0.124l0.395-0.891l0.474-0.522l0.52-0.401l0.527-0.57l0.276-0.747l-0.132-0.646l-0.257-0.622l-0.138-0.682l0.276-1.538
		l0.704-1.518l1.777-2.704l0.474,0.49l1.185,1.535l1.428,0.434l0.724-0.048l-0.197-0.723l-1.55-1.757l0.014-0.004l1.672-0.536
		l7.858-2.187l2.333,0.625l-0.468,3.613l-0.518,2.658l-0.117,2.675l2.015,0.676l2.408-0.602l2.566-0.928l2.709-0.403l1.087-0.801
		l1.17-0.709l1.388-0.403l1.321-0.635l1.07-0.926l0.677-1.398l-0.159-1.01l-0.059-1.054l1.02-0.748l0.744-1.123l-0.075-1.338
		l0.008-1.335l2.031-1.818l2.742,0.268l1.346-1.594l1.471,0.105l1.413,0.598l2.475,2.02l3.795,5.126l2.5-0.031l0.192-1.409
		l0.518-1.307l0.794-0.761l0.585-1.016l2.383-0.13l1.63,2.477l-0.719,2.848l0.493,1.832l1.647,1.854l-0.109,3.264l1.948,2.067
		l3.01,0.446l2.324-1.387l2.441-0.403l1.68,0.023l1.421-0.362l1.229,0.946l1.379,0.803l2.976,0.053l2.934-0.392l2.684-0.02
		l2.533-0.352l2.358-2.529l2.934-1.63l5.175,1.864l4.615,3.709l-0.435,2.151l1.664,1.954l0.811,2.524l0.343,5.236l1.095,1.959
		l1.99,1.445l1.806,1.887l0.702,2.08l0.869,1.815l5.041,5.471l1.087,2.667l-0.008,1.826L403.061,398.944z M336.78,371.225
		l-4.172-1.559l-2.215,0.662l-2.123,0.482l-2.901-0.767l-1.747,1.646l2.215,4.849l4.406,2.634l4.991,0.794l3.185-4.233
		L336.78,371.225z M351.944,445.324l2.528-0.298l1.316,0.099l1.106,0.533l0.882,1.586l-0.263,1.816l-1.066,1.486l-1.494,0.612
		l-3.337,0.612l-1.29-0.183l-0.948-0.461l-1.935-1.295v-0.727l0.441-0.544l0.079-0.453l-0.316-0.437l-0.757-0.509l1.119-0.823
		l1.29-0.525L351.944,445.324z M287.802,443.885l0.125,1.344l-0.217,1.502l-0.435,1.454l-1.593,3.401l-0.645,1.033l-0.803,0.54
		l-0.138-0.302l-1.382-1.303l-0.639-0.397v0.612l-0.329,1.565l-7.702,4.184l-0.928,0.318l-3.403,0.286l-0.941-0.238l-0.178-0.849
		l0.454-0.715l0.599-0.595l0.23-0.5l-0.434-0.603l-2.33-1.461v2.065l-1.698-1.997l1.007-3.261l2.304-2.638l2.258-0.167l0.731-2.11
		l0.474-0.751l0.75-0.835l0.869-0.477l0.77-0.131l0.586-0.433l0.224-1.384l0.948,1.161l1.284,0.131l1.145-0.751l0.494-1.487
		l-0.619-1.221l-2.08-1.635l0.54-0.812l1.31-0.095l1.336,0.728l1.159,0.919l0.862,0.454l0.198,0.274l0.237,0.617l0.388,0.672
		l0.54,0.434l0.369-0.119l1.83-1.15l0.072,0.847L287.802,443.885z M401.208,425.681l0.843,0.215l0.737,1.163l0.579,1.434
		l0.685,2.453l0.072,1.429l-0.243,1.389l-0.586,1.345l-0.81,0.828l-0.908,0.072l-0.908-0.486l-2.863-2.906l-0.336-1.131l0.487-1.8
		l0.356-0.47l1.514-1.143l0.27-0.586l0.612-2.486l-1.224-1.299l0.145-0.793l0.882-0.407l1.007-0.116l0.869,0.391l0.217,0.917
		l-0.415,1.08L401.208,425.681z M256.173,422.863l0.968,0.873l0.25,0.406l0.105,0.749l-0.178,0.769l-0.336,0.717l-1.224,1.645
		l-0.566,0.414l-0.56,0.048l-0.829-0.076l-0.007-0.307l-1.172-0.685l-1.27-0.538l-0.355,0.132l-0.731-1.634l0.553-0.757l2.389-0.956
		l1.468-2.009l0.5-0.255l0.303,0.199L256.173,422.863z M257.641,416.236l0.033,2.082l-0.375-0.172l-0.922-0.259l-0.408-0.239
		l-0.698,0.921l-1.106,0.008l-1.014-0.215l-0.448,0.255l-0.165,1.316l-0.434,1.156l-0.704,0.865l-0.961,0.434l-0.948-0.112
		l-0.698-0.658l-0.421-1.04l-0.138-1.292l0.243-1.22l0.645-0.862l0.889-0.574l0.987-0.383l1.099,0.423l1.448-0.315l2.646-1.009
		l0.54-0.072l0.388,0.064l0.296,0.287L257.641,416.236z M261.59,403.217l0.349-1.303l0.79-0.196l0.902,0.619l0.638,1.107
		l0.191,1.414l-0.25,1.37l-0.619,1.174l-0.941,0.811l-1.165,0.347l-0.671-0.255l-0.527-0.455l-0.685-0.248l-2.64,0.591l-0.994,0.02
		v-0.611l0.797-0.695l1.455-2.317l1.106-1.007l0.52,0.032l0.77,0.212l0.672-0.012L261.59,403.217z M266.007,389.7l-0.434,0.112
		l-2.153-0.572l-0.77,0.124l-0.296-0.22l-0.197-0.216l-0.211-0.168l-0.355-0.06l0.632-3.123l0.428-0.913l0.56-0.32l0.961-0.32
		l0.889-0.432l0.395-0.633l0.612-1.338l1.461-0.946l1.659-0.393l1.238,0.333l-2.462,1.43l-0.566,0.829l-0.066,0.985l0.355,1.013
		l1.086,1.75l-0.869,0.36l-0.908,0.885l-0.691,1.033L266.007,389.7z M362.95,490.486l0.474,0.419l0.579,0.162l0.211,0.332
		l-0.099,0.478l-1.145-0.553l-1.106-0.257l-0.198-0.304l-0.276-0.664l-0.178-0.81l-0.303-0.214l-0.25-0.308l-0.198-0.664
		l0.118-0.391l-0.039-0.451l0.059-0.403l0.257-0.083l0.296,0.099l0.375-0.119l0.217-0.253l0.118-0.036l0.198,0.415l-0.277,0.902
		l0.138,1.004L362.95,490.486z M380.973,448.559l0.362,0.969v0.576l-0.612,0.655l-1.474,0.953l-1.29,0.393l-0.461-0.262
		l-0.033-0.834l-0.546-0.572l-0.816-0.262l-0.375-0.505l0.217-0.389l-0.882-0.56l-0.54-0.401l0.29-0.731l-0.053-0.548l-0.138-0.437
		l0.395-0.223l0.573,0.246l0.606,0.35l1.132,0.286l0.02,0.254l0.375-0.095l0.731-0.723l0.744-0.04L380.973,448.559z M401.28,443.05
		l0.533,0.294l0.355,0.56l-0.178,0.608l-1.007,0.346l-0.658,0.028l-0.171-0.171l-0.263-0.393l-0.75-0.418l-1.178-0.393l-0.79-0.608
		l-0.362-0.831l-0.395-0.604l-0.665-0.358l-0.573-0.688l0.435-0.835l1.363-0.648l1.481-0.199l1.053,0.78l1.224,2.378l-0.145,0.684
		l0.039,0.35L401.28,443.05z M265.158,434.275l0.184,0.183l0.151,0.497l-0.072,1.015l-0.25,1.086l-0.072,0.943l-0.454,0.489
		l-0.652,0.481l-0.678,0.64l-1.593,0.943l-0.882,0.135l-0.935-0.27l-0.29-0.501l0.467-0.163l0.494-0.024l0.408-0.41l0.48-0.366
		l-0.079-0.334l-1.797-0.398l0.435-0.517l1.119-0.171l1.172-0.036l0.922-0.704l0.402-0.955l-0.395-0.979l-0.81-1.294l-0.513-1.644
		l0.612-0.458l0.987,0.792l0.586,0.609l0.994,0.557L265.158,434.275z M260.142,436.941l-0.77,0.354l-0.652-0.545l-0.316-3.395
		l0.29-1.887l0.678-0.86l1.034,2.257l0.862,1.254l0.678,1.373l-0.224,1.146l-0.731,0.247L260.142,436.941z M212.234,425.298
		l0.928-0.239l0.158,0.398l-0.711,0.701l-0.375,0.446l-0.211,0.558l-1.277,1.486l-0.25,0.689l-0.533,0.888l-0.415,0.57l-0.329,0.362
		l-0.79-0.331l-0.52-1.402l0.086-1.306l0.448-1.191l0.54-1.052l0.586-0.92l0.678-0.502l0.665-0.132l0.362,0.283l0.27,0.709
		L212.234,425.298z M271.142,420.954l0.276,0.857l0.033,1.048l-0.467,0.937l-1.027,0.1l-0.948-0.937l-0.75-1.088l-0.869-0.012
		l-0.435,0.387l-0.283,0.135l-0.606,0.052l-0.573-0.419l-0.138-0.837l-0.737-1.348l-1.593-1.675l-0.336-0.814l0.783,0.207
		l0.638,0.004l0.599-0.307l0.862-0.088l1.02,0.156l0.757,0.335l0.48,0.522l0.711,0.359l0.961,0.064l0.79,0.191l0.54,0.49l0.29,0.538
		l-0.059,0.49L271.142,420.954z M270.707,415.123l-0.257,0.255l-0.277,0.63l0.171,1.324l-0.487,0.519l-0.968,0.255l-0.941-0.534
		l-1.053-0.901l-1.356-0.503l-0.994-0.582l0.796-0.666l2.014-0.331l1.178-0.511l0.612-0.503l0.777,0.343l0.586,0.798
		L270.707,415.123z M263.486,412.146l-0.678-0.934l-0.559-1.022l0.244-0.778l1.185-0.595l0.968-0.1l0.77,0.435l0.75-0.024
		l0.217-0.591l-0.158-1.15l0.77-0.751l1.06,0.02l0.514-0.052l0.401,0.224l0.388,0.559l0.086,0.607l-1.086,0.695l0.395,1.525
		l-0.198,0.926l-0.573,0.355l-0.797-0.036l-0.507,0.575l0.02,1.094l-0.263,0.934l-0.862,0.487l-0.731-0.06l-0.178-0.579l0.033-0.391
		L263.486,412.146z M276.993,402.961l-0.717,0.312l-0.987-0.032l-0.402-0.887l0.165-0.935l0.632-0.344h1.382l0.474,0.192l0.02,0.424
		l-0.263,1.015L276.993,402.961z M271.49,389.964l0.204,0.44l0.079,0.504l-0.02,0.96l-0.342,0.312l-0.408,0.228l-0.434-0.164
		l-0.724-0.8l-0.329-0.224l-0.434,0.216l-0.388-0.04l-0.118-0.428l-0.309-0.156l-0.402,0.012l-0.112-0.216l0.586-0.444l-0.23-0.128
		l-0.362,0.064l-0.349-0.104l0.151-0.444l0.625-0.412l0.52-0.08l0.704,0.324l1.033-0.084l0.717,0.204L271.49,389.964z
		 M186.502,487.719l-0.395-0.253l-1.58-1.447l-0.902-0.554l-0.197-0.755l0.395-1.025l0.619-0.57l0.895,0.301l0.711,0.878
		l1.158,2.385l0.079,0.771l-0.25,0.435l-0.355-0.067L186.502,487.719z M305.509,476.042l0.704,0.297l0.671,0.839l-0.198,0.432
		l-0.336-0.305l-0.29-0.048l-0.145,0.38l-0.303-0.119l-0.737-0.404l-0.757,0.02l-0.435,0.424l-0.276,0.523l-0.902,0.61l-0.803,0.724
		l-1.218,0.732l-1.547-0.067l-0.862-1.14l-0.059-1.473l0.711-1.445l1.435-0.998h1.231l1.6,1.018l0.474,0.059l0.671-0.206
		l0.908,0.016L305.509,476.042z M311.421,477.538l0.323,0.178l0.276,0.475l-0.257,0.293l-0.355,0.055l-0.118,0.578v0.982
		l-0.408,0.764l-0.797,0.218l-0.415-0.245l-0.145-0.451l-0.388-0.309l-0.415-0.091l-0.178-1.306l0.513-2.245l0.178-1.251
		l-0.533-0.495l-0.158-0.448l0.671-0.642l0.039-0.333l0.691,0.008l1.369,0.701l0.191,0.951l-0.77,0.661l-0.138,0.741
		L311.421,477.538z M330.616,473.214l0.777,0.701l0.487,0.547l-0.211,1.22l-0.198,0.523l-0.513,0.907l-0.948,0.511l-1.205,0.103
		l-0.889-0.459l-0.731-0.657l-0.533,0.063l-0.277,0.487l-0.303-0.178l-0.329-1.497l0.5-1.01l0.132-0.927l0.316-0.737l0.573-0.547
		l1.152-0.566l1.382,0.353L330.616,473.214z M306.576,471.221l0.329,0.475l0.066,0.852l-0.56,0.471l-0.283,1.109l-1.178,0.063
		l-0.652,0.135l0.395,0.697l-0.408,0.341l-1.231-0.333l-0.638-0.594l-0.158-0.392l-0.342-0.123l-0.382-0.079l-0.079-0.325
		l0.415-1.165l0.237-0.436l0.033-0.297l-0.158-0.234l0.066-0.214l0.296-0.147l0.191-0.21l-0.053-0.277l-0.415-0.678l0.27-0.234
		l0.638,0.206l0.625,0.337l1.685,0.285l0.869,0.452L306.576,471.221z M264.236,462.477l-0.079,1.083l0.132,0.702l-0.382,0.559
		l-0.783,0.099l-0.454,0.377l-0.355-0.167l-0.336-0.523l-0.276,0.012l-0.138,0.484l-0.513,0.075l-1.672-0.694l-0.566-0.809
		l-0.053-0.531l0.342-0.464l0.039-0.48l0.606-0.401l2.784,0.583l1.165-0.178L264.236,462.477z M326.126,462.417l-0.342,0.353
		l-0.731,0.151l-0.395-0.563l-0.165-0.75l-0.434-0.591l-0.625-0.266l-0.829,0.123l-0.968,0.341l-0.777-0.008l-0.309-0.159
		l-0.309-0.202l-1.79-0.789l-0.112-0.329l0.829-0.107l0.81-0.238l0.355-0.206l0.296-0.143l0.639,0.099l0.737,0.345l0.895-0.373
		l1.093-0.889l0.823-0.206l0.474,0.361l0.586,0.155l0.342-0.024l0.342-0.063l0.902,0.095l1.145,0.278l0.711,0.417l-0.158,0.714
		l-0.467,0.548l-0.125,0.333l-0.079,0.678l-0.507,0.555l-0.698-0.135l-0.75,0.139L326.126,462.417z M345.354,458.87l0.277,0.238
		l0.158,0.456l-0.494,0.103l-0.685-0.345l-0.803-0.178l-0.579,0.226l0.211,0.266l0.494,0.282l-0.586,0.583l-1.428,1.119
		l-0.829,0.373l-0.079-0.861l0.401-0.607l0.514-0.341l-0.29-0.389l-1.771-0.365l0.237-0.389l-0.191-0.492l-0.54-0.325l-1.356-0.127
		l-0.527-0.179l-0.23-0.155l0.191-0.182l0.599-0.119l0.467-0.317l0.75-0.905l0.803-0.667l-0.066-0.254l0.257,0.087l0.573,0.556
		l0.527,0.786l0.303,0.881l0.632,0.278l1.106-0.349l0.81-0.091l0.375,0.329l0.276,0.444L345.354,458.87z M318.853,462.349
		l0.158,0.603l0.454,1.087l-0.276,0.262l-0.395-0.056l-0.395-0.111l-0.724-0.313l-0.619-0.4l-0.342,0.067l-0.079,0.571l-0.388,0.226
		l-0.711-0.325l-1.224-0.285l-1.521-0.531l-0.013-0.631l0.75-0.571l-0.197-0.718l-0.698-0.186l-0.842,0.218l-1.053-0.289
		l-0.948-0.619l-0.566-0.714l-0.237-1.059l-0.079-1.206l0.066-1.23l0.323-1.231l0.639-0.941l0.869-0.417l0.467-0.107l1.422-0.143
		l0.928,0.306l0.869,0.588l0.961,1.131l0.75,1.882l0.224,1.544l0.257,0.714l0.441,0.595l0.25,0.833L318.853,462.349z
		 M318.734,455.159l-0.395-0.028l-0.355-0.361l0.296-0.58l0.375-0.572l0.56-1.231l1.139-1.501l1.6-0.882l1.678-0.397l1.007,0.175
		l0.382,0.584l0.066,0.643l-0.421,0.433l0.066,0.234l0.75,0.457l0.619,0.691l0.54,0.782l0.072,0.596l-0.592,0.099l-1.659-0.508
		l-0.691,0.171l-0.408,0.6l-2.133,0.992l-0.751,1.004l-0.237,1.048l-0.434,0.306l-0.527-0.611l0.013-1.008l-0.171-0.849
		L318.734,455.159z M284.616,408.082l1.534,0.539l0.165,2.08l-1.586,1.461l-0.869-0.327l0.514-0.579l0.257-0.563l-0.211-0.391
		l-2.258-1.238l-0.336-0.18l-2.389,0.387l-1.06,0.519l-1.198,0.192l-0.961-0.327l-0.494-0.639l0.434-0.515l1.284-0.084l1.646-0.599
		l0.29-0.367l0.263-0.272l0.079-0.415l1.014-0.311l0.362-0.611l0.039-0.719l-0.632-0.863l-0.27-0.971l0.882-0.455l1.402,0.336
		l1.442,0.727l1.027,1.031l-0.105,0.579l-0.704,0.092l-1.231,0.815l-0.151,0.455l0.046,0.579l0.112,0.459l0.52,0.164
		L284.616,408.082z M276.006,390.104l0.151-0.48l-0.553-0.168l-2.074-0.348l-0.461-0.4l-0.711-0.068l-0.349-0.072l-0.349-0.316
		l-0.461-0.232l-0.434-0.533l-0.869-2.022l0.494-0.793l1.027-0.344l0.948,0.348l0.757,0.505l0.685-0.236l0.777-0.409l0.5,0.248
		l0.171,0.432l0.395-0.016l0.5-0.144l0.204,0.641l-0.56,0.565l-0.744,0.048l-0.316,0.364v0.525l0.889,0.913l0.75,0.34l0.842,0.056
		l0.481,0.68l0.243,0.873l0.408,0.552l0.145,0.752l-0.316,0.952l-0.316,0.256l-0.211-0.308l-0.941-0.216l-0.395-0.504l-0.322-0.58
		L276.006,390.104z"/>
	<path class="st6" d="M496.712,381.61l-0.386-0.346l-0.733,1.075l-2.469,4.34l-1.118,0.077l-0.078-1.997l0.077-1.882l-0.539-0.078
		l-0.702,1.56l-0.572,2.359l-2.005-0.23l-5.326,0.086l-0.306-1.807l-0.542-0.959l-0.735,2.731l-0.81,0.386l-1.883-0.846
		l-0.881-1.647l-0.968-0.112l-1.244,0.957v-4.306l-0.336-0.357l-0.691,0.285l-0.586,0.905l-0.046,1.522l-1.284-1.001l-1.001-1.442
		l-1.106-0.894l-1.626,0.649l0.355-1.391l-0.672-1.976l0.316-0.734l-0.81-2.59l-0.474-0.273l-0.928,0.842l-1.007,1.58l-0.02,1.054
		l1.027,2.136l0.573,2.605l0.336,0.913l0.691,1.186l1.349,1.814l0.198,0.913l-0.382,1.309l0.639,0.088l1.001,0.432l0.573,0.152
		l-0.711,0.472l-0.711,0.188l-1.639,0.004l-0.862-0.2l-0.243-0.52l-0.04-0.656l-0.27-0.633l-0.777-0.817l-0.553-0.448l-4.364-1.534
		l-1.224-0.076l-2.679,0.509l-0.731,0.361l0.053,0.693l0.935,1.313l-1.501,0.3l-2.771,1.393l-3.179,0.865l-0.415,1.245l-0.158,1.352
		l-0.862,0.888v0.668l8.07-4.273l1.369-0.092l0.276,1.729l0.487,1.268l0.165,1.128l-0.652,1.308l-1.034,0.576l-1.58,0.264
		l-1.58-0.072l-1.047-0.432l-0.546,0.96l0.375,0.464l0.731,0.424l0.546,0.84l0.079,0.512l0.026,0.736l-0.105,2.046l-0.606,4.02
		l0.744,0.707l0.711-0.236l0.559-0.783l0.25-0.967l1.093,1.278l-1.126,2.013l-2.041,2.651l-1.811,0.543l-2.43-0.162l0.042-1.501
		l1.56-0.021l0.665-0.12l0.402-0.659l-5.023-0.563l-1.047-0.415l-1.159-1.606l-0.165-0.807l0.829-0.519l1.863-0.719l-1.837-3.677
		l-1.323,1.303l-1.33,2.558l-1.876,0.12l-1.712-2.294l-0.895-0.572l-1.837-0.188l-0.81,0.487l-0.448,1.187l-0.164,1.506l0.039,1.454
		l-1.711-0.288l-3.759,0.168l-1.481-0.823l-0.171-0.531l-0.02-1.438l-0.086-0.38l-0.375-0.096l-0.902,0.164l-1.165-0.268
		l-1.902-0.164l-0.671-0.364l-0.375-0.787l0.039-0.771l0.204-0.74l0.132-0.66l-0.132-7.284l0.132-1.173l0.237-0.544l0.415-0.72
		l0.355-0.945l0.099-1.205l-1.264,1.509l-1.04,1.761l-1.284,1.321l-1.942,0.168l1.481,3.481l-1.007,0.68l-2.192-0.048l-2.093,1.32
		l-0.849-2.36l-0.513-0.964l-0.908-0.7l-0.237,3.168l-0.869,2.503l-1.692,1.511l-2.159,0.192l-0.862-0.34l-0.77-0.196l-0.638,0.072
		l-0.494,0.464l-1.205-0.991l-0.845-0.229l-0.204-0.436l0.008-1.826l-1.087-2.667l-5.041-5.471l-0.869-1.815l-0.702-2.08
		l-1.806-1.887l-1.99-1.445l-1.095-1.959l-0.343-5.236l-0.811-2.524l-1.664-1.954l0.435-2.151l1.697-1.728l0.117-2.435l0.535-2.642
		l3.377-4.026l0.485-2.711l-1.162-0.774l-0.828-1.867l0.142-2.529l-0.895-2.33l-0.151-1.25l-0.301-1.091l-2.073-0.874l0.084-2.49
		l1.129-2.297l0.694-3.086l0.945-2.987l1.254-2.338l1.02-2.223l0.234-3.049l0.903-2.599l1.848-1.633l1.747-1.821l1.522-3.281
		l0.794-0.51l1.104,0.118l1.99-0.608l4.021-2.13l0.786-2.087l2.959-3.166l0.652,2.208l1.638,0.95l0.752,0.565l0.744,0.632
		l0.067,0.785l0.326,0.803l0.652,0.295l0.66,0.221l2.449,0.19l1.062,0.888l1.313,0.883l2.324,0.18l2.291-0.021l2.09,0.703
		l1.538,1.667l1.078,2.041l1.789,1.261l0.451,0.928l0.276,0.854l1.246,0.769l1.079,1.263l-0.05,2.339l-0.97,2.236l1.271,4.577
		l4.991,0.21l2.441-0.343l2.332,0.389l2.19,1.049l2.073,1.551l2.299,0.461l4.331-2.216l2.215,0.448l1.998-2.838l1.864-1.439
		l0.669,5.477l2.04,2.481l2.533,1.598l2.934-0.33l3.026-0.54l2.642,0.806l2.525,1.325l3.018,0.087l2.633-2.081l1.162-0.43
		l1.17-0.153l1.112-0.959l0.928-1.195l2.926-1.197l3.11,0.77l2.383,1.118l2.266-0.755l0.343,3.936l-2.023,4.065l1.212,2.443
		l4.983,0.761l2.098,1.589l3.494,3.983l4.163,2.285l1.856,1.442l0.543,2.74l1.764,1.74l2.299,0.811l0.326,0.281l-0.381,1.312
		l-0.14,1.819l-0.479,0.944l-0.546,0.808l0.457,1.345l0.026,0.554l-0.915,1.849l-1.287,2.729l-1.439,1.727l-0.777,1.613
		l-0.146,0.294l-0.159-0.354l-1.63-1.657l-1.463-1.882l-1.847-1.49l-1.446-2.002l-0.451-2.163l-1.588-1.012l-2.048-0.079
		l-1.906,0.762l-1.538,1.111l-1.154,1.427l-0.844,5.821l-1.154,1.751l-1.229,1.522L496.712,381.61z M424.464,412.896l0.415,1.113
		l-0.237,0.982l-0.448,1.041l-0.237,1.28l0.224,2.022l-0.066,1.156l-0.461,0.502l-0.645,0.363l0.685,1.989l-0.336,0.996
		l-1.244,0.231l-1.185-0.709l-1.277-0.558l-1.501,0.694l-1.316,0.175l-0.803-1.897l-0.908-3.959l-1.33-0.718l-1.06,0.73
		l-0.717,1.651l-0.27,2.045l-0.494,0.861l-1.145,0.036l-1.211-0.414l-0.737-0.482l-0.5-0.881l-0.118-0.726l-0.02-0.857l-0.178-1.244
		l-2.232-7.242l-0.296-1.748l0.217-1.725l0.928-1.765l0.619-0.451l0.632-0.116l0.487-0.328l0.382-2.169l0.474-0.619l1.297-1.011
		l1.066-0.516l1.224,0.376l1.073,0.955l0.625,1.227l-0.112,1.29l-0.711,1.234l-1.817,1.893l0.329,0.679l0.375,1.717l0.454,0.894
		l0.691,0.479l1.731,0.579l0.974,1.736l1.567-0.275l1.988-0.778l1.876-0.399l2.725,0.455L424.464,412.896z M479.383,407.603
		l-0.092,1.162l-0.362,1.234l-0.711,0.687l-1.099-0.463l0.448,1.317l1.047,2.219l0.217,1.52l-0.619,0.243l-1.415-0.487l-1.521-0.798
		l-0.922-0.662l-0.25,1.369l-0.25,0.742l-1.402,1.628l-0.454,1.272l0.961,0.734l1.33,0.554l0.671,0.754l-1.264,1.108l-5.858,1.81
		l-1.764,0.12l2.765-2.001l-1.145-0.542l-0.435-0.869l0.066-1.168l0.408-1.436l-2.508,1.28l-0.744-0.514l-0.362-1.129l0.046-1.133
		l0.507-0.515l2.014-0.407l0.573-1.081l0.04-1.528l0.434-1.728l-1.106-0.671l-0.829,1.022l-2.903,1.281l-1.284,1.049l-0.922-1.429
		l-1.152-1.261l-0.941-1.413l-0.25-1.869l0.52-1.126l1.066-1.039l1.231-0.799l1.053-0.447l3.028-0.623l0.829,0.016l1.33,0.559
		l1.06,0.691l1.086,0.531l1.501,0.104v-0.611l-1.501-0.983l-0.856-1.466l-0.382-1.674l-0.086-1.571l1.066,0.132l5.668-3.215
		l-0.968-1.804l0.454-1.792l1.244-0.992l1.428,0.56l0.355,0.816l0.026,0.952l-0.527,3.647l0.04,0.576l0.375,1.155l0.494,0.923
		l0.355,0.951l-0.02,1.291l-0.323,1.171l-1.277,3.336l1.639-0.575l0.783-0.539l0.263,0.192L479.383,407.603z M424.721,409.943
		l0.329,0.26l0.448,0.675l-0.856,0.216l-3.66-0.962l-2.001,0.643l-1.172-0.14l-1.205-0.73l-0.711-1.397l0.553-1.513l1.106-1.426
		l0.704-1.342l0.737-0.947l1.284-0.348l0.415,1.087l-0.566,1.586l-0.283,1.082l0.079,0.903l0.428,0.291l0.474-1.066l0.948-1.498
		l0.777-0.132l0.237,0.687l0.415,0.391l0.401,0.224l0.184,1.178l0.461,1.629L424.721,409.943z M487.006,392.582l-0.355,2.032
		l-0.533,0.728l-0.415,0.14l-0.198-0.428l-0.395-1.72l-0.612-0.64l-0.217-0.504l0.099-0.696l-0.276-0.816l-0.428-0.776l0.224-0.708
		l0.856-0.484l0.928-0.096l0.81,0.24l0.553,1.241L487.006,392.582z M442.665,430.086l0.204,0.219l-0.118,0.522l-0.777,0.956
		l-0.349,0.231l-0.52,0.076l-0.764-0.171l-0.632,0.092l-0.862,0.426l-0.421,0.394l-0.481,0.104l-0.079-0.366l0.283-0.625
		l-0.079-0.506l-0.355-0.354l-0.303-0.068l-0.355-0.271l0.033-0.49l0.217-0.446l0.033-0.534l0.323-0.311l0.546-0.135l2.561,1.362
		l0.007,0.605l0.369,0.04L442.665,430.086z M450.044,412.395l0.771-0.316l1.246-0.311l1.413-0.091l0.79,0.773l0.213,1.259
		l-0.429,0.787l0.295,0.471l-0.351,0.59l-0.814-0.327l-0.321,0.195l0.023,0.247l0.664,0.13l0.666,0.548l-0.327,0.591l-0.826,1.032
		l-1.339,0.015l-0.587-0.747l-0.317-0.767l-0.677-0.026l0.159-0.643l-0.223-0.643l-1.044-0.154l-0.372-0.299l0.774-0.613
		l0.147-0.747l-0.782-0.616l-1.458-0.502l-0.924,0.29l-0.549-0.028l-0.173-0.645l0.651-0.713l0.949-0.24l1.247,0.505l0.952,0.726
		L450.044,412.395z M438.242,410.821l1.211,1.349l0.454,0.762l-0.323,0.527h-0.869l-0.408,0.215l0.059,0.694l-0.244,0.299
		l-0.763-0.215l-0.474-0.231l-0.889-0.618l-0.513-0.766l0.099-0.531l0.553-0.902l1.086-0.818L438.242,410.821z"/>
	<path class="st4" d="M515.842,378.63l-0.399,0.801l-1.25-0.025l-0.923-0.04l-1.138,0.186l-0.836-0.048l-0.879,0.394l-0.966,0.113
		l-0.078,1.384l0.646,0.959l0.107,1.15l-0.415,1.309l-1.811,0.843l-1.465-1.27l-0.887-0.732l-0.66-0.81l-2.12,2.265l-0.966,1.804
		l-0.31,1.92l-0.656,0.46l-0.388-0.967l-0.965-1.042l0.08,0.93l0.193,2l-0.617-0.001l-0.272-0.662l-0.347-0.156l-0.829,0.554
		l-0.788,0.492l-0.54-0.663l-0.654-2.216l0.27-1.997l0.618-2.535l0.116-1.421l0.671-1.224l1.229-1.522l1.154-1.751l0.844-5.821
		l1.154-1.427l1.538-1.111l1.906-0.762l2.048,0.079l1.588,1.012l0.451,2.163l1.446,2.002l1.847,1.49l1.463,1.882l1.63,1.657
		L515.842,378.63z"/>
	<path class="st0" d="M536.855,334.463l0.124,0.147l0.541,0.953l-0.306,2.157l-0.173,2.556l-0.546,3.84l-0.823,1.626l-1.33,1.787
		l-1.224,0.66l-0.533-1.742l-0.474-2.27l-1.047-1.703l-1.126-0.29l-0.671,1.932l1.106,0.254l0.658,0.833l0.316,1.219l0.072,1.404
		l-0.356,1.328l-0.829,0.31l-0.928,0.085l-0.645,0.644l0.118,0.708l0.104,1.837l0.33,1.896l-0.754,1.215l-0.685,1.215l0.675,0.949
		l0.541,0.543l-0.111,1.342l-1.664,0.544l-1.566,0.941l-2.248,2.22l-1.902-0.071l-0.03,0.103l-0.326-0.281l-2.299-0.811l-1.764-1.74
		l-0.543-2.74l-1.856-1.442l-4.163-2.285l-3.494-3.983l-2.098-1.589l-4.983-0.761l-1.212-2.443l2.023-4.065l-0.343-3.936
		l1.948-1.571l2.082-1.21l1.246-0.031l0.51-0.973l-0.777-1.28l-0.443-1.388l2.725-2.107l3.419-1.191l2.801-0.423l2.742,0.574
		l2.851,1.224l0.744,1.219l0.042,1.48l0.201,1.321l1.003,0.719l1.354,0.351l7.524-1.354l6.404,1.561L536.855,334.463z"/>
	<path class="st3" d="M533.907,234.188l0.02,0.167l0.415,3.943l1.106,4.112l0.441,4.143l-0.5,8.547l-0.494,1.836l-2.501,3.016
		l-0.974,1.697l-0.428,1.977l-0.342,12.07l0.276,1.636l0.494,0.909l0.54,0.365l0.434,0.503l0.467,3.393l0.599,2.596l0.652,0.454
		l0.434,0.56l-0.303,1.557l-0.652,0.876l-0.843,0.405l-0.797,0.259l-1.348,1.109l-0.075,1.363l1.705,1.576l1.225,1.369l1.292,1.573
		l1.64,0.281l2.078-1.623l5.141-5.609l0.989-1.651l1.335,1.06l0.296,1.711l0.573,1.779l0.421,1.981l-1.262,1.97l-2.916,5.78
		l-0.222,2.588l-0.866,6.804l-2.096,5.907l0.116,3.692l-2.146,6.412l-1.581,3.115l-0.689,1.557l0.673,1.768l0.621,0.739
		l-0.071,0.019l-6.404-1.561l-7.524,1.354l-1.354-0.351l-1.003-0.719l-0.201-1.321l-0.042-1.48l-0.744-1.219l-2.851-1.224
		l-2.742-0.574l-2.801,0.423l-3.419,1.191l-2.725,2.107l0.443,1.388l0.777,1.28l-0.51,0.973l-1.246,0.031l-2.082,1.21l-1.948,1.571
		l-2.266,0.755l-2.383-1.118l-3.11-0.77l-2.926,1.197l-0.928,1.195l-1.112,0.959l-1.17,0.153l-1.162,0.43l-2.633,2.081l-3.018-0.087
		l-2.525-1.325l-2.642-0.806l-3.026,0.54l-2.934,0.33l-2.533-1.598l-2.04-2.481l-0.669-5.477l-1.864,1.439l-1.998,2.838
		l-2.215-0.448l-4.331,2.216l-2.299-0.461l-2.073-1.551l-2.19-1.049l-2.332-0.389l-2.441,0.343l-4.991-0.21l-1.271-4.577l0.97-2.236
		l0.05-2.339l-1.079-1.263l-1.246-0.769l-0.276-0.854l-0.451-0.928l-1.789-1.261l-1.078-2.041l-1.538-1.667l-2.09-0.703
		l-2.291,0.021l-2.324-0.18l-1.313-0.883l-1.062-0.888l-2.449-0.19l-0.66-0.221l-0.652-0.295l-0.326-0.803l-0.067-0.785
		l-0.744-0.632l-0.752-0.565l-1.638-0.95l-0.652-2.208l0.376-6.333l-3.31-5.634l1.965-0.96l2.031-0.679l1.254-2.439l0.677-2.556
		l0.627-1.112l0.777-0.94l0.175-1.64l-0.017-1.365l-0.451-2.68l1.956-1.67l1.939,0.358l1.722,0.103l-0.92-5.203l-1.831-1.346
		l-4.13,0.988l-1.572-0.743l-2.291-1.906l-1.956-0.637l-3.252,0.764l-0.485-4.746l1.789-1.541l1.162-2.304l-0.895-1.578l-0.51-1.723
		l0.485-2.404l0.326-5.453l0.802-2.29l1.471-1.431l-3.963-5.735l-3.168-0.536l-0.911-2.293l1.195-0.554l1.187-0.215l1.17-1.249
		l1.823-2.439l0.451-1.024l-0.05-0.936l0.209-1.193l2.516-1.704l2.826-1.336l1.755-2.611l3.085,1.334l5.735,0.908l-1.179-2.258
		l-1.547-1.988l0.543-2.061l1.012-2.197l0.978-1.652l1.296,0.855l1.613-0.138l1.329-1.785l1.379-0.886l1.304,0.839l2.5,0.876
		l2.332,0.182l0.568-1.658l0.401-1.567l0.844-1.328l1.053-1.037l1.053,1.178l1.346,0.957l1.906,1.645l1.204,2.429l2.884,0.946
		l6.771-2.837l1.195-3.948l-1.07-0.983l-0.568-0.986l1.028-1.878l0.844-1.894l1.781-2.537l2.5-1.767l0.711-1.284l1.003-0.833
		l1.672-0.523l1.346-1.302l2.056-1.714l1.864-1.97l0.786-0.5l0.961,0.37l1.095-0.631l0.987-1.118l2.073,1.097l1.998,0.837
		l2.416,0.519l2.065,0.193l0.477-2.155l0.259-2.317l-0.535-2.482l1.471-1.789l2.199-1.028l2.207,0.172l1.137,1.99l1.563,0.357
		l1.405,0.696l-0.201,1.755l0.184,1.768l2.424-0.949l2.299-1.786l0.986,0.409l0.686,0.915l0.886,0.109l1.07-0.435l3.168,0.532
		l2.984,1.366l2.115-0.534l2.199-1.158l2.767,0.644l2.525,1.517l0.786,2.325l-1.914,1.428l-2.357-0.93l-1.513,0.565l-1.379,1.042
		l-0.585,2.5l0.359,3.265l1.664,2.509l2.667,1.259l0.594,2.144l0.761,1.852l1.856,0.793l1.739,0.985l5.927,0.442l-0.326,2.285
		l0.694,0.657l0.635,0.748l-0.869,2.53l-1.078,2.67l0.217,2.814l0.711,2.484l0.251,2.242l-0.895,2.389l5.601,2.061l2.592-1.143
		l2.7,0.617L533.907,234.188z M478.799,310.85l1.262-1.299l0.435-1.572l-0.042-1.682l-0.167-1.577l-0.869-0.737l-0.652-0.976
		l-0.025-2.514l0.393-0.663l0.042-0.787l-1.028-1.784l-3.244-2.371l-4.272,0.278l-5.15,0.689l-3.804,3.147l0.51,4.534l-1.388,1.521
		l-0.869,1.955l0.769,0.126l0.711,0.262l-0.15,0.991l-0.343,0.94l-1.304,0.213l-1.212,0.008l-1.12,1.558l0.485,1.835l1.254,0.488
		l1.179,1.155l0.961,1.852l1.43,1.154l0.995,0.641l0.744,0.613l0.619-0.526l1.154-2.011l1.154-0.908l2.617,0.262l4.673,1.213
		l1.806-1.09l0.242-0.931l0.008-0.641l0.761-1.986l0.109-0.839l-0.042-0.652l0.761-0.067L478.799,310.85z M653.698,140.376
		l1.382,1.042l-0.099,2.579l-0.895,2.871l-0.941,1.908l-1.54,0.772l-2.06-0.4l-2.001-1.198l-1.33-1.598l-0.421-2.07l0.685-1.545
		l1.455-0.967l2.877-0.488l1.922-0.707L653.698,140.376z"/>
	<path class="st7" d="M333.585,542.975l0.612,1.253l-0.375,0.428l-0.783,0.228l-0.559,0.667l0.039,0.562l0.513,0.891v0.522
		l-0.276,0.518l-0.691,0.907l-0.138,0.283l-1.459,1.681l-2.748,2.187l-0.852,1.822l-1.216,2.128l-0.058,0.853l-0.538,1.253
		l-1.995,0.231l-0.77,0.404l-2.125-0.186l-3.102,2.441l-8.175,1.497l-2.734,2.316l-3.348,0.741l-3.585-0.357l-4.097,0.761
		l-3.406-1.02l-7.687,0.11l-2.397,1.117l-1.427,2.519l-1.303,0.27l-1.303-0.622l-1.841-2.971l-2.453-0.831l-2.38-2.484l-0.829-3.025
		l1.442-3.92l1.363-2.432l0.843-0.855l2.811-1.659l2.401-4.158l2.207-0.564l1.021-2.196l3.785-1.302l8.252-2.357l2.067-1.774
		l7.886-0.823l5.368-2.332l1.286,0.362l6.537-1.051l3.79-0.313l2.508,0.421l0.958,1.435l1.191,0.928l3.904,1.544l1.185,1.198
		l0.797,2.891l0.783,1.131l0.375-0.44l0.513-0.42L333.585,542.975z"/>
	<path class="st5" d="M347.322,139.895l2.215-0.026l1.898-0.683l1.647-0.024l0.619,1.478l-0.217,1.514l-1.129,0.569l-1.229,0.813
		l0.025,1.836l0.652,0.729l-1.388,1.888l-0.769,1.327l-2.098,1.243l-2.307,0.535l-2.374,1.19l-0.928-2.123l-2.023,0.467
		l-2.006,0.624l-1.421,0.813l-1.48,0.241l-3.469-0.118l-2.374-3.111l-2.341-0.703l-1.613-1.059l-0.426-2.914l-1.605-2.28
		l-1.914-2.336l1.212-2.597l2.266,0.145l2.592,1.575l1.923-0.651l1.714-1.04l0.134-1.749l0.468-1.613l3.628-0.347l1.864-2.365
		l1.137-2.402l1.613-1.722l2.525-0.602l2.909,0.237l1.388,2.382l0.535,3.238l0.844,2.262l0.05,2.482L347.322,139.895z"/>
	<path class="st1" d="M355.661,250.266l3.704-1.009l5.253-1.432l1.847,0.155l-0.184,0.766l0.284,0.727l0.577,0.631l0.702,0.339
		l0.468,1.123l-0.309,1.754l2.441,0.693l2.608-0.577l0.945-1.368l1.129,0.279l-0.142,1.141l0.995,0.51l0.142,1.787l0.836,2.662
		l-0.393,2.349l-1.062,1.7l-1.17,4.32l-2.115,1.701l-1.162,0.392l-3.52,2.623l-3.98,1.034l-1.676-5.431l-0.419-7.248l-1.466-2.849
		L355.661,250.266z"/>
	<path class="st4" d="M357.889,231.239l-1.58,3.425l0.151,1.688l-1.012,2.879l-0.376,3.08l5.952-1.191l6.153,0.389l-0.059,1.09
		l-0.41,0.938l-0.159,0.764l0.267,0.642l0.059,0.507l0.092,0.507l-0.159,1.041l-0.343,0.984l-1.847-0.155l-5.253,1.432l-3.704,1.009
		l-5.514,1.502l-7.365-1.441l0.736-2.098l1.229-1.172l-0.253-15.19l1.885-5.2L357.889,231.239z"/>
	<path class="st7" d="M387.048,182.367l8.544-2.334l8.602-1.173l-0.694,4.877l2.458-0.579l2.475,0.172l0.686,0.425l0.694,0.324
		l0.627-0.546l0.543-0.66l1.638-1.12l-0.443-4.912l1.53-1.871l4.121-1.39l3.076,3.248v2.171l1.003,1.402l2.684-0.648l2.675-1.486
		l1.622-1.249l1.931,0.405l1.597-0.836l1.873-1.442l4.514,1.604l4.615,0.726l1.455,0.436l-0.936,2.128l-2.332,1.655l-1.388,2.146
		l0.886,0.997l1.145,0.631l0.719,0.016l0.736-0.344l2.458-0.819l3.854-0.438l0.803,0.882l-0.142,1.44l1.605,1.662l0.585,1.328
		l1.471-0.109l1.739-0.308l1.948-0.621l1.931-0.013l1.923,1.453l2.132,1.377l2.107,0.415l2.057,0.237l1.638,0.709l1.622,1.045
		l-0.987,1.118l-1.095,0.631l-0.961-0.37l-0.786,0.5l-1.864,1.97l-2.056,1.714l-1.346,1.302l-1.672,0.523l-1.003,0.833l-0.711,1.284
		l-2.5,1.767l-1.781,2.537l-0.844,1.894l-1.028,1.878l0.568,0.986l1.07,0.983l-1.195,3.948l-6.771,2.837l-2.884-0.946l-1.204-2.429
		l-1.906-1.645l-1.346-0.957l-1.053-1.178l-1.053,1.037l-0.844,1.328l-0.401,1.567l-0.568,1.658l-2.332-0.182l-2.5-0.876
		l-1.304-0.839l-1.379,0.886l-1.329,1.785l-1.613,0.138l-1.296-0.855l-0.978,1.652l-1.012,2.197l-0.543,2.061l1.547,1.988
		l1.179,2.258l-5.735-0.908l-3.085-1.334l-1.755,2.611l-2.826,1.336l-2.516,1.704l-0.209,1.193l0.05,0.936l-0.451,1.024
		l-1.823,2.439l-1.17,1.249l-1.187,0.215l-1.195,0.554l0.911,2.293l3.168,0.536l3.963,5.735l-1.471,1.431l-0.802,2.29l-0.326,5.453
		l-0.485,2.404l0.51,1.723l0.895,1.578l-1.162,2.304l-1.789,1.541l0.485,4.746l3.252-0.764l1.956,0.637l2.291,1.906l1.572,0.743
		l4.13-0.988l1.831,1.346l0.92,5.203l-1.722-0.103l-1.939-0.358l-1.956,1.67l0.451,2.68l0.017,1.365l-0.175,1.64l-0.777,0.94
		l-0.627,1.112l-0.677,2.556l-1.254,2.439l-2.031,0.679l-1.965,0.96l-1.037,1.085l-1.037,0.946l-1.187-0.64l-1.179-1.121
		l-2.984,1.342l-2.6,1.587l-1.296-0.37l-0.752-0.938l-3.62-1.186l-1.212-1.433l-1.371-0.805l-0.527,0.702l-0.652,0.16l-0.769-0.702
		l-0.694-0.831l-1.839-2.849l-1.647-2.922l-0.694-3.418l0.109-3.448l-0.836-2.967l-2.483-1.516l-2.399-0.776l-2.608,0.539
		l-0.217-2.84l0.142-2.761l0.97-3.862l1.831-3.285l0.736-1.674l0.819-1.488l1.329-1l0.309-1.734l-1.037-0.344l-1.12-0.504
		l-1.363,0.99l-1.062,1.427l-0.836-2.662l-0.142-1.787l-0.995-0.51l0.142-1.141l-1.129-0.279l-0.945,1.368l-2.608,0.577
		l-2.441-0.693l0.309-1.754l-0.468-1.123l-0.702-0.339l-0.577-0.631l-0.284-0.727l0.184-0.766l0.343-0.984l0.159-1.041l-0.092-0.507
		l-0.059-0.507l-0.267-0.642l0.159-0.764l0.41-0.938l0.059-1.09l-6.153-0.389l-5.952,1.191l0.376-3.08l1.012-2.879l-0.151-1.688
		l1.58-3.425l2.241-3.238l1.705-2.953l0.677-0.724l0.769,0.119l0.752-0.21l0.41-0.768l0.109-0.865l0.251-1.098l0.393-1.06
		l0.201-1.135l-0.176-1.141l-0.535-1.011l-0.669-0.611l0.084-2.069l-1.062-0.743l-1.388-2.787l-1.087-0.629l-0.953-0.999
		l-0.635-1.493l3.628-1.061l3.436-1.65l2.692-0.9l0.727-2.965l1.321-1.427l2.073-0.893l0.978-1.263l0.669-1.675l1.254-1.329
		l1.58,0.331l0.46,0.607l2.031-1.412l3.862-7.163l0.393-0.858l0.468-0.788l0.627-0.504l0.652-0.454l0.652-0.976L387.048,182.367z"/>
	<path class="st0" d="M336.78,371.225l1.639,4.508l-3.185,4.233l-4.991-0.794l-4.406-2.634l-2.215-4.849l1.747-1.646l2.901,0.767
		l2.123-0.482l2.215-0.662L336.78,371.225z"/>
	<path class="st6" d="M478.799,310.85l-0.61-0.18l-0.761,0.067l0.042,0.652l-0.109,0.839l-0.761,1.986l-0.008,0.641l-0.242,0.931
		l-1.806,1.09l-4.673-1.213l-2.617-0.262l-1.154,0.908l-1.154,2.011l-0.619,0.526l-0.744-0.613l-0.995-0.641l-1.43-1.154
		l-0.961-1.852l-1.179-1.155l-1.254-0.488l-0.485-1.835l1.12-1.558l1.212-0.008l1.304-0.213l0.343-0.94l0.15-0.991l-0.711-0.262
		l-0.769-0.126l0.869-1.955l1.388-1.521l-0.51-4.534l3.804-3.147l5.15-0.689l4.272-0.278l3.244,2.371l1.028,1.784l-0.042,0.787
		l-0.393,0.663l0.025,2.514l0.652,0.976l0.869,0.737l0.167,1.577l0.042,1.682l-0.435,1.572L478.799,310.85z"/>
</g>
<g id="Copyright">
	<text transform="matrix(1 0 0 1 681.6426 577.5916)" class="st8 st9"> Vemaps.com</text>
</g>
</svg>
